<?xml version="1.0" encoding="UTF-8" standalone="no"?>
<svg
   version="1.0"
   width="865pt"
   height="536pt"
   viewBox="0 0 865 536"
   preserveAspectRatio="xMidYMid"
   id="svg6"
   sodipodi:docname="ace_logo_raw.svg"
   inkscape:version="1.2.2 (732a01da63, 2022-12-09)"
   xmlns:inkscape="http://www.inkscape.org/namespaces/inkscape"
   xmlns:sodipodi="http://sodipodi.sourceforge.net/DTD/sodipodi-0.dtd"
   xmlns="http://www.w3.org/2000/svg"
   xmlns:svg="http://www.w3.org/2000/svg">
  <defs
     id="defs10" />
  <sodipodi:namedview
     id="namedview8"
     pagecolor="#ffffff"
     bordercolor="#000000"
     borderopacity="0.25"
     inkscape:showpageshadow="2"
     inkscape:pageopacity="0.0"
     inkscape:pagecheckerboard="0"
     inkscape:deskcolor="#d1d1d1"
     inkscape:document-units="pt"
     showgrid="false"
     inkscape:zoom="0.32"
     inkscape:cx="-140.625"
     inkscape:cy="987.5"
     inkscape:window-width="1920"
     inkscape:window-height="1057"
     inkscape:window-x="-8"
     inkscape:window-y="-8"
     inkscape:window-maximized="1"
     inkscape:current-layer="g244" />
  <g
     id="g244"
     transform="translate(-514.99999,-414.49996)"
     inkscape:label="logo">
    <g
       id="g5405"
       transform="matrix(1.0059069,0,0,1.0138202,-3.0420493,-174.17424)"
       inkscape:label="pages">
      <path
         d="m 7027,12218 c -43,-69 -191,-325 -422,-728 -39,-69 -163,-282 -274,-475 -112,-192 -254,-438 -316,-545 -62,-107 -162,-280 -223,-385 -60,-104 -175,-302 -254,-440 -79,-137 -199,-345 -266,-461 -67,-115 -122,-216 -122,-223 0,-7 6,-11 14,-8 42,16 474,29 815,24 376,-5 575,-18 891,-57 859,-106 1588,-350 2105,-704 122,-84 122,-84 95,-45 -49,71 -151,187 -222,254 -481,456 -1186,764 -2023,885 -44,6 -91,13 -105,15 -116,18 -355,38 -627,51 -73,3 -133,9 -133,11 0,3 29,58 64,122 92,167 264,481 403,736 185,337 460,840 516,940 27,50 93,171 147,270 54,99 134,245 178,325 l 80,145 48,3 c 27,2 119,-4 204,-13 603,-64 1157,-227 1517,-446 38,-23 73,-44 78,-47 34,-17 -147,152 -225,212 -427,323 -1008,525 -1704,591 -213,20 -223,20 -239,-7 z"
         id="path2-0"
         inkscape:label="page-right"
         transform="matrix(-0.1,0,0,-0.1,1889.9205,1923.9223)" />
      <path
         d="m 7027,12218 c -43,-69 -191,-325 -422,-728 -39,-69 -163,-282 -274,-475 -112,-192 -254,-438 -316,-545 -62,-107 -162,-280 -223,-385 -60,-104 -175,-302 -254,-440 -79,-137 -199,-345 -266,-461 -67,-115 -122,-216 -122,-223 0,-7 6,-11 14,-8 42,16 474,29 815,24 376,-5 575,-18 891,-57 859,-106 1588,-350 2105,-704 122,-84 122,-84 95,-45 -49,71 -151,187 -222,254 -481,456 -1186,764 -2023,885 -44,6 -91,13 -105,15 -116,18 -355,38 -627,51 -73,3 -133,9 -133,11 0,3 29,58 64,122 92,167 264,481 403,736 185,337 460,840 516,940 27,50 93,171 147,270 54,99 134,245 178,325 l 80,145 48,3 c 27,2 119,-4 204,-13 603,-64 1157,-227 1517,-446 38,-23 73,-44 78,-47 34,-17 -147,152 -225,212 -427,323 -1008,525 -1704,591 -213,20 -223,20 -239,-7 z"
         id="path2"
         transform="matrix(0.1,0,0,-0.1,-6.9588941e-7,1923.9223)"
         inkscape:label="page-left" />
    </g>
    <path
       id="path322-7-5"
       style="display:inline;fill:#ff0000;fill-opacity:1;stroke-width:1.28568"
       d="m 947.5002,414.49996 0.004,387 h 52.14743 c -15.31199,-28.63676 -40.20429,-58.58571 -39.6607,-90.66532 99.75987,62.1858 222.48417,-32.6841 96.30067,-162.92926 h -0.013 C 993.90319,480.87959 960.17482,431.36465 947.5002,414.49996 Z m 0,0 c -12.67506,16.86469 -46.40282,66.37963 -108.78385,133.40542 h -0.007 c -126.18729,130.24516 -3.4564,225.11506 96.30644,162.92926 0.54359,32.07961 -24.35196,62.0284 -39.66444,90.66532 h 52.14931 z"
       inkscape:label="as-right" />
    <path
       id="path322-7-5-2"
       style="display:inline;fill:#ff0000;fill-opacity:1;stroke-width:1.28568"
       d="m 947.50019,414.49996 0.004,387 h 52.14749 c -15.31204,-28.63676 -40.20434,-58.58571 -39.66076,-90.66532 99.75988,62.1858 222.48418,-32.6841 96.30078,-162.92926 h -0.013 C 993.90319,480.87959 960.17481,431.36465 947.50019,414.49996 Z m 0,0 c -12.67506,16.86469 -46.40282,66.37963 -108.78386,133.40542 h -0.007 c -126.18731,130.24516 -3.4564,225.11506 96.30645,162.92926 0.54358,32.07961 -24.35197,62.0284 -39.66445,90.66532 h 52.14932 z"
       inkscape:label="as-left" />
    <path
       id="path322-7"
       style="stroke-width:1.13675"
       d="m 947.5003,435.49996 0.004,345 h 45.72914 c -13.4274,-25.52888 -35.25596,-52.22758 -34.77927,-80.82568 87.48143,55.43696 195.10093,-29.13699 84.44813,-145.24702 h -0.012 c -54.69829,-59.75164 -84.27536,-103.89286 -95.39,-118.9273 z m 0,0 c -11.11501,15.03444 -40.69156,59.17566 -95.39473,118.9273 h -0.007 c -110.65615,116.11003 -3.03097,200.68398 84.45307,145.24702 0.47668,28.5981 -21.35472,55.29665 -34.78253,80.82568 h 45.73077 z"
       inkscape:label="as-main" />
  </g>
</svg>
