<svg xmlns="http://www.w3.org/2000/svg" preserveAspectRatio="xMidYMid" version="1.0" viewBox="0 0 865 515">
  <path d="M671.6 100.01c-3.13-.09-8.74.42-19.45 1.43-37.02 3.54-70.55 11.18-100.52 22.2a248.77 248.77 0 0 1 14.32 17.93 504.77 504.77 0 0 1 52.6-8.7c8.55-.91 17.8-1.52 20.52-1.32l4.83.3 8.05 14.7c4.43 8.12 12.47 22.92 17.9 32.96 5.44 10.03 12.08 22.3 14.8 27.37 5.62 10.14 33.29 61.13 51.9 95.3 13.98 25.85 31.28 57.68 40.53 74.6 3.52 6.5 6.44 12.08 6.44 12.38 0 .2-6.03.8-13.38 1.12-27.36 1.32-51.4 3.34-63.07 5.17-1.4.2-6.13.9-10.56 1.52-84.2 12.27-155.11 43.5-203.5 89.72-7.14 6.8-17.4 18.56-22.32 25.76-2.72 3.95-2.72 3.95 9.55-4.57 52-35.9 125.34-60.62 211.74-71.37 31.79-3.95 51.8-5.27 89.63-5.78 34.3-.5 77.76.8 81.98 2.43.8.3 1.41-.1 1.41-.8 0-.72-5.53-10.96-12.27-22.61L825.97 363c-7.95-14-19.51-34.07-25.55-44.61L778 279.37c-6.24-10.85-20.52-35.8-31.79-55.26-11.16-19.56-23.64-41.16-27.56-48.15-23.24-40.86-38.12-66.81-42.45-73.8-.8-1.38-1.46-2.06-4.59-2.15zm-478.2 0c-3.13.09-3.79.77-4.6 2.14-4.32 7-19.2 32.95-42.44 73.8-3.92 7-16.4 28.6-27.56 48.16-11.27 19.47-25.55 44.4-31.79 55.26L64.58 318.4c-6.04 10.54-17.6 30.62-25.55 44.6a94657.5 94657.14 0 0 1-26.76 46.75C5.53 421.4 0 431.65 0 432.35c0 .7.6 1.12 1.4.8 4.23-1.61 47.69-2.93 81.99-2.42 37.82.5 57.84 1.83 89.63 5.78 86.4 10.75 159.73 35.48 211.74 71.37 12.27 8.52 12.27 8.52 9.56 4.57-4.93-7.2-15.2-18.96-22.34-25.76-48.38-46.23-119.3-77.45-203.5-89.72-4.42-.6-9.14-1.32-10.55-1.52-11.67-1.83-35.71-3.85-63.07-5.17-7.35-.3-13.38-.91-13.38-1.12 0-.3 2.92-5.88 6.44-12.37 9.25-16.93 26.55-48.76 40.53-74.61 18.61-34.17 46.28-85.16 51.9-95.3a13035.57 13035.52 0 0 1 32.7-60.32l8.05-14.7 4.83-.3c2.71-.21 11.97.4 20.52 1.3a510.76 510.76 0 0 1 53.1 8.5c4.23-5.81 9.2-11.76 14.45-17.77-30.07-11.1-63.96-18.6-101.15-22.15-10.71-1.01-16.32-1.52-19.45-1.43z" style="stroke-width:.999998"/>
  <path d="M432.5 0v345h45.73c-13.42-25.53-35.25-52.23-34.78-80.83 87.49 55.44 195.1-29.13 84.45-145.24h-.01C473.19 59.18 443.61 15.03 432.5 0Zm0 0c-11.11 15.03-40.7 59.18-95.4 118.93-110.66 116.1-3.03 200.68 84.45 145.24.48 28.6-21.35 55.3-34.78 80.83h45.73z" style="stroke-width:1.13675"/>
</svg>
